<?xml version="1.0" encoding="UTF-8"?>
<svg id="Layer_1" xmlns="http://www.w3.org/2000/svg" version="1.1" viewBox="0 0 888.85 425.95">
  <!-- Generator: Adobe Illustrator 30.1.0, SVG Export Plug-In . SVG Version: 2.1.1 Build 136)  -->
  <defs>
    <style>
      .st0 {
        fill: #189fea;
      }
    </style>
  </defs>
  <g>
    <path d="M142.29,355.04c-18.98,0-33.51-4.68-43.61-14.04-10.11-9.36-15.15-24.51-15.15-45.46v-90.18h-26.98v-42.5h26.98v-38.81l49.89-5.17v43.98h40.65v42.5h-40.65v87.59c0,11.83,5.17,17.74,15.52,17.74h20.7v44.35h-27.35Z"/>
    <path d="M277.56,359.84c-19.71,0-37.08-4.56-52.11-13.67-15.03-9.11-26.67-21.25-34.93-36.4-8.26-15.15-12.38-31.97-12.38-50.45s4.31-35.42,12.94-50.82c8.62-15.4,20.38-27.66,35.29-36.77,14.9-9.11,31.97-13.67,51.19-13.67s36.16,4.56,50.82,13.67c14.66,9.12,26.11,21.38,34.37,36.77,8.25,15.4,12.38,32.34,12.38,50.82,0,2.71-.13,5.54-.37,8.5-.25,2.96-.62,6.04-1.11,9.24h-143.77c2.71,11.33,8.19,20.58,16.45,27.72,8.25,7.15,18.66,10.72,31.23,10.72,10.84,0,20.26-2.46,28.27-7.39,8-4.93,14.23-11.09,18.66-18.48l38.81,29.2c-7.64,12.07-19.1,21.93-34.37,29.57-15.28,7.63-32.4,11.46-51.37,11.46ZM276.82,200.92c-11.83,0-21.93,3.57-30.31,10.72-8.38,7.15-13.92,16.51-16.63,28.09h94.98c-2.71-10.59-8.32-19.71-16.82-27.35-8.5-7.63-18.91-11.46-31.23-11.46Z"/>
    <path d="M396.93,355.04V66.24h49.89v288.79h-49.89Z"/>
    <path d="M571.38,359.84c-19.71,0-37.33-4.56-52.85-13.67s-27.66-21.25-36.4-36.4c-8.75-15.15-13.12-31.97-13.12-50.45s4.37-35.35,13.12-50.63c8.74-15.27,20.88-27.47,36.4-36.59,15.52-9.11,33.13-13.67,52.85-13.67s37.63,4.56,53.04,13.67c15.4,9.12,27.47,21.31,36.22,36.59,8.74,15.28,13.12,32.15,13.12,50.63s-4.38,35.29-13.12,50.45c-8.75,15.15-20.82,27.29-36.22,36.4-15.4,9.11-33.08,13.67-53.04,13.67ZM571.38,314.39c10.59,0,19.83-2.52,27.72-7.58,7.88-5.05,13.98-11.76,18.29-20.14,4.31-8.37,6.47-17.49,6.47-27.35s-2.16-19.34-6.47-27.72c-4.31-8.37-10.41-15.09-18.29-20.14-7.89-5.05-17.13-7.58-27.72-7.58s-19.84,2.53-27.72,7.58c-7.89,5.05-13.99,11.77-18.29,20.14-4.31,8.38-6.47,17.62-6.47,27.72s2.15,18.98,6.47,27.35c4.31,8.38,10.41,15.1,18.29,20.14,7.88,5.05,17.12,7.58,27.72,7.58Z"/>
    <path d="M757.65,359.84c-32.28,0-58.89-11.21-79.83-33.63l33.63-30.68c14.04,15.77,29.07,23.65,45.09,23.65,8.62,0,15.21-1.91,19.77-5.73,4.56-3.82,6.84-8.56,6.84-14.23,0-3.45-.8-6.4-2.4-8.87-1.61-2.46-4.93-4.8-9.98-7.02-5.05-2.22-12.63-4.43-22.73-6.65-17.25-4.19-30.06-9.36-38.44-15.52-8.38-6.16-13.92-13.06-16.63-20.7-2.71-7.63-4.07-15.52-4.07-23.65,0-16.75,6.34-30.73,19.03-41.95,12.69-11.21,30.24-16.82,52.67-16.82,15.52,0,28.83,2.34,39.92,7.02,11.09,4.68,21.56,13.43,31.41,26.24l-36.22,27.72c-4.68-7.39-9.92-12.69-15.71-15.89-5.79-3.2-11.89-4.8-18.29-4.8-6.9,0-12.63,1.36-17.19,4.07-4.56,2.71-6.84,7.02-6.84,12.94,0,3.21,1.48,6.35,4.44,9.42,2.96,3.08,10.1,6.1,21.44,9.05,18.72,4.68,33.01,10.16,42.87,16.45,9.85,6.28,16.63,13.37,20.33,21.25,3.7,7.89,5.54,16.63,5.54,26.24,0,11.83-3.27,22.42-9.79,31.78-6.53,9.37-15.4,16.76-26.61,22.17-11.21,5.42-23.96,8.13-38.25,8.13Z"/>
  </g>
  <path class="st0" d="M597.57,132.38c16.78-13.9,38.3-22.27,61.74-22.27s44.96,8.37,61.74,22.27h57.76c-24.95-39.77-69.19-66.27-119.5-66.27s-94.55,26.5-119.5,66.27h57.76Z"/>
</svg>