<?xml version="1.0" encoding="UTF-8"?>
<svg id="Layer_2" xmlns="http://www.w3.org/2000/svg" version="1.1" viewBox="0 0 891.21 416.57">
  <!-- Generator: Adobe Illustrator 30.1.0, SVG Export Plug-In . SVG Version: 2.1.1 Build 136)  -->
  <defs>
    <style>
      .st0 {
        fill: #030608;
      }

      .st1 {
        fill: #030709;
      }

      .st2 {
        fill: #f8f9f9;
      }

      .st3 {
        fill: #047eb4;
      }

      .st4 {
        fill: #2ca6d8;
      }

      .st5 {
        fill: #020608;
      }
    </style>
  </defs>
  <g id="IBxolE">
    <g>
      <path class="st1" d="M303.21,320.93l39.52-.03c-2.18,11.67-8.67,20.63-16.83,28.54-15.76,15.28-34.81,19.44-56.38,19.87-31.01.63-59.36-17.09-70.96-46.09-4.12-10.31-4.93-21.03-5.11-32.13-.24-15.1,2.41-29.87,10.53-42.79,22.36-35.57,58.79-45.37,98.01-31.56,34.65,18.46,45.45,45.97,43.46,84.38h-108.93c.18,5.78,1.49,10.86,3.18,15.86,4.19,12.87,15.2,20.41,28.43,21.64,14.26,1.33,28.29-3.96,35.07-17.69ZM302.82,273.02c-.61-8.08-2.73-14.24-6.25-19.95-6.14-9.02-16.31-12.15-26.96-12.19-20.06-.06-30.75,13.22-32.99,32.25l66.21-.12Z"/>
      <path class="st1" d="M590.09,280.54c3.19,34.48-8.35,59.97-37.99,78.19-13.48,8.28-28.68,10.56-44.51,10.58-48.6.07-83.27-39.33-78.53-87.75,2.75-28.13,19.65-52.24,45.56-63.46,13.08-5.66,26.84-6.51,40.91-6.2,20.27.45,37.81,8.34,51.96,22.35,12.77,12.64,20.92,28.1,22.6,46.28ZM543.81,315.12c6.31-15.66,6.04-33.45-.06-49.21-6.38-16.47-22.33-24.63-39.46-22.18-12.95,1.85-23.62,9.28-28.45,21.86-9.13,23.75-5.62,64.86,26.53,70.8,16.72,3.09,34.51-4.05,41.45-21.27Z"/>
      <path class="st1" d="M736.67,317.13c.4,23.26-12.26,41.58-34.97,47.9-19.62,5.46-39.99,5.64-59.7.48-21.61-5.66-38.1-23.75-39.83-46.37l36.87-.07c2.85,9.82,9.99,17.21,20.21,19.63s31.82,3.01,36.5-8.02c2.06-4.84,2.34-10.71-.91-14.72-5.36-6.61-22.54-9.34-31.17-10.92-11.26-2.06-22.02-4.44-32.62-8.36-16.64-6.15-26.4-20.93-25.52-38.66.93-18.66,11.4-33.93,29.18-40.98,21.63-8.57,46.45-7.91,68.08.78,16.14,6.48,29.79,23.1,28.93,41.3l-36.85-.05c-.51-7.2-4.15-12.95-10.45-16.1-16.99-8.5-42.06-1.72-40.82,12.52.97,11.11,15.45,14.07,25.41,16.2l29.79,6.37c9.27,1.98,17.68,5.92,24.94,11.83,8.37,6.81,12.73,16.28,12.92,27.23Z"/>
      <path class="st5" d="M182.53,334.85l-.16,28.92c-27.4,9.42-70.37,6.26-75.35-29.04-.64-4.52-1.34-8.9-1.35-13.66l-.09-74.74-25.97-.25.07-30.88,26.62-.12.05-38.97,42.19.02.22,38.95,34.07.05.18,30.75-34.44.31.11,78.8c.02,13.61,23.65,9.99,33.85,9.87Z"/>
      <polygon class="st0" points="409.93 199.1 409.56 365.02 366.64 364.97 366.86 156.76 410.6 156.78 409.93 199.1"/>
      <path class="st2" d="M302.82,273.02l-66.21.12c2.24-19.03,12.93-32.32,32.99-32.25,10.65.03,20.82,3.16,26.96,12.19,3.53,5.71,5.64,11.87,6.25,19.95Z"/>
      <path class="st2" d="M543.81,315.12c-6.94,17.22-24.73,24.36-41.45,21.27-32.15-5.95-35.67-47.05-26.53-70.8,4.83-12.57,15.5-20.01,28.45-21.86,17.13-2.45,33.08,5.72,39.46,22.18,6.11,15.76,6.37,33.55.06,49.21Z"/>
    </g>
  </g>
  <rect class="st3" x="747.59" y="47.24" width="64" height="64"/>
  <polygon class="st3" points="677.1 183.41 677.1 119.41 741.1 119.41 677.1 183.41"/>
  <polygon class="st4" points="741.43 182.98 677.42 182.98 741.43 118.98 741.43 182.98"/>
</svg>